TexturaLibera-Condensed.sfdir
StartChar: numbersign
Encoding: 35 35 3
Width: 560
Flags: MW
LayerCount: 4
Fore
SplineSet
200 -150 m 25
 520 700 l 1049
40 -150 m 25
 360 700 l 1049
40 200 m 25
 520 200 l 1049
40 400 m 25
 520 400 l 1049
EndSplineSet
EndChar
StartChar: ampersand
Encoding: 38 38 6
Width: 400
Flags: MW
LayerCount: 4
Fore
SplineSet
160 350 m 25
 320 350 l 1049
360 80 m 1
 280 0 l 1
 240 40 l 1
 240 550 l 9
 160 600 l 1
 80 520 l 17
 80 400 l 1
 160 350 l 1
 80 270 l 25
 79 50 l 25
 160 0 l 25
 240 80 l 1041
EndSplineSet
EndChar
StartChar: parenleft
Encoding: 40 40 8
Width: 200
Flags: MW
LayerCount: 4
Fore
SplineSet
160 700 m 21
 160 700 40 575 40 275 c 4
 40 -25 160 -150 160 -150 c 1037
EndSplineSet
EndChar
StartChar: asterisk
Encoding: 42 42 10
Width: 400
Flags: MW
LayerCount: 4
Fore
SplineSet
80 350 m 25
 320 500 l 1049
200 600 m 25
 200 250 l 1049
80 500 m 25
 320 350 l 1049
EndSplineSet
EndChar
StartChar: plus
Encoding: 43 43 11
Width: 480
Flags: MW
LayerCount: 4
Fore
SplineSet
240 500 m 29
 240 100 l 1053
80 300 m 29
 400 300 l 1053
EndSplineSet
EndChar
StartChar: comma
Encoding: 44 44 12
Width: 240
Flags: MW
LayerCount: 4
Fore
SplineSet
95 50 m 25
 145 0 l 1
 145 -50 l 25
 70 -125 l 1049
EndSplineSet
EndChar
StartChar: hyphen
Encoding: 45 45 13
Width: 240
Flags: MW
LayerCount: 4
Fore
SplineSet
80 200 m 29
 160 225 l 1053
EndSplineSet
EndChar
StartChar: period
Encoding: 46 46 14
Width: 240
Flags: MW
LayerCount: 4
Fore
SplineSet
95 50 m 25
 145 0 l 1049
EndSplineSet
EndChar
StartChar: slash
Encoding: 47 47 15
Width: 400
Flags: MW
LayerCount: 4
Fore
SplineSet
40 -150 m 29
 360 700 l 1053
EndSplineSet
EndChar
StartChar: one
Encoding: 49 49 17
Width: 320
Flags: MW
LayerCount: 4
Fore
SplineSet
85 50 m 25
 185 0 l 1
 235 50 l 1049
185 350 m 25
 135 400 l 25
 85 350 l 1049
160 375 m 9
 160 25 l 1025
EndSplineSet
Substitution2: "Subscript forms-1" one.inferior
Substitution2: "Superscript forms-1" one.superior
EndChar
StartChar: two
Encoding: 50 50 18
Width: 320
Flags: MW
LayerCount: 4
Fore
SplineSet
80 350 m 1
 120 400 l 1
 160 400 l 1
 240 350 l 1
 240 275 l 1
 80 75 l 25
 80 0 l 1
 80 0 130 50 200 50 c 3
 228 50 260 0 261 0 c 1025
EndSplineSet
Substitution2: "Subscript forms-1" two.inferior
Substitution2: "Superscript forms-1" two.superior
EndChar
StartChar: three
Encoding: 51 51 19
Width: 320
Flags: MW
LayerCount: 4
Fore
SplineSet
80 350 m 1
 120 400 l 1
 160 400 l 1
 220 350 l 1
 220 230 l 1
 140 150 l 1049
60 -200 m 17
 60 -200 90 -150 120 -150 c 27
 157 -150 200 -200 200 -200 c 9
 240 -160 l 1
 240 115 l 9
 180 175 l 1049
EndSplineSet
Substitution2: "Subscript forms-1" three.inferior
Substitution2: "Superscript forms-1" three.superior
EndChar
StartChar: four
Encoding: 52 52 20
Width: 320
Flags: MW
LayerCount: 4
Fore
SplineSet
195 -100 m 25
 245 -150 l 1049
220 -125 m 1
 220 400 l 1
 220 400 207 375 192 375 c 27
 176 375 160 400 160 400 c 1
 80 200 l 1
 80 0 l 1
 80 0 91 25 160 25 c 3
 269 25 319 0 320 0 c 1025
EndSplineSet
Substitution2: "Subscript forms-1" four.inferior
Substitution2: "Superscript forms-1" four.superior
EndChar
StartChar: five
Encoding: 53 53 21
Width: 320
Flags: MW
LayerCount: 4
Fore
SplineSet
240 400 m 17
 240 400 202 350 180 350 c 0
 145 350 80 400 80 400 c 1
 80 125 l 1
 160 175 l 1
 240 95 l 1
 240 -120 l 17
 160 -200 l 1
 160 -200 130 -150 100 -150 c 24
 70 -150 40 -200 40 -200 c 1025
EndSplineSet
Substitution2: "Subscript forms-1" five.inferior
Substitution2: "Superscript forms-1" five.superior
EndChar
StartChar: seven
Encoding: 55 55 23
Width: 320
Flags: MW
LayerCount: 4
Fore
SplineSet
135 -100 m 25
 185 -150 l 1049
60 400 m 1
 60 400 110 350 180 350 c 3
 223 350 280 400 280 400 c 1
 280 400 160 276 160 0 c 3
 160 -32 160 -125 161.25 -125 c 1025
80 125 m 25
 80 125 118 150 140 150 c 24
 175 150 165 125 200 125 c 24
 222 125 260 150 261 150 c 1049
EndSplineSet
Substitution2: "Subscript forms-1" seven.inferior
Substitution2: "Superscript forms-1" seven.superior
EndChar
StartChar: nine
Encoding: 57 57 25
Width: 320
Flags: MW
LayerCount: 4
Fore
SplineSet
240 80 m 1
 160 0 l 1
 80 80 l 25
 80 320 l 25
 160 400 l 25
 240 320 l 1
 240 -160 l 13
 200 -200 l 17
 200 -200 157 -150 120 -150 c 27
 90 -150 60 -200 60 -200 c 1025
EndSplineSet
Substitution2: "Subscript forms-1" nine.inferior
Substitution2: "Superscript forms-1" nine.superior
EndChar
StartChar: colon
Encoding: 58 58 26
Width: 240
Flags: MW
LayerCount: 4
Fore
SplineSet
95 350 m 25
 145 300 l 1049
95 50 m 25
 145 0 l 1049
EndSplineSet
EndChar
StartChar: semicolon
Encoding: 59 59 27
Width: 240
Flags: MW
LayerCount: 4
Fore
SplineSet
95 50 m 25
 145 0 l 1
 145 -50 l 25
 70 -125 l 1049
95 350 m 25
 145 300 l 1049
EndSplineSet
EndChar
StartChar: B
Encoding: 66 66 34
Width: 560
Flags: MW
AnchorPoint: "blwmark" 280 0 basechar 0
AnchorPoint: "abvmark" 320 700 basechar 0
LayerCount: 4
Fore
SplineSet
40 550 m 1
 40 550 67 600 99 600 c 3
 128 600 142 575 160 575 c 3
 182 575 200 600 201 600 c 1025
260 150 m 1
 260 560 l 1
 300 600 l 1
 480 475 l 1
 360 355 l 1025
400 375 m 1
 480 295 l 1
 480 80.7998046875 l 25
 400 0 l 17
 400 0 279 50 120 50 c 3
 65 50 40 0 40 0 c 1033
EndSplineSet
Layer: 2
SplineSet
160 550 m 5
 160 75 l 1029
EndSplineSet
EndChar
StartChar: G
Encoding: 71 71 39
Width: 600
Flags: MW
AnchorPoint: "blwmark" 320 0 basechar 0
AnchorPoint: "abvmark" 360 700 basechar 0
LayerCount: 4
Fore
SplineSet
380 300 m 17
 380 300 418 364 460 364 c 3
 505 364 520 306 520 200 c 3
 520 75 415 0 320 0 c 3
 176 0 100 134 100 300 c 3
 100 480 240 600 240 600 c 1025
340 500 m 1
 340 100 l 1025
240 492 m 1
 240 492 316 600 364 600 c 3
 415 600 394 550 440 550 c 3
 478 550 500 600 501 600 c 1025
EndSplineSet
Layer: 2
SplineSet
240 550 m 5
 240 100 l 1029
EndSplineSet
EndChar
StartChar: I
Encoding: 73 73 41
Width: 360
Flags: MW
AnchorPoint: "blwmark" 200 0 basechar 0
AnchorPoint: "abvmark" 200 700 basechar 0
LayerCount: 4
Fore
SplineSet
40 550 m 1
 40 550 67 600 99 600 c 3
 128 600 142 575 160 575 c 3
 182 575 200 600 201 600 c 1025
300 600 m 1
 260 560 l 1
 260 40 l 1
 220 0 l 17
 220 0 198 50 120 50 c 3
 65 50 40 0 40 0 c 1033
EndSplineSet
Layer: 2
SplineSet
160 550 m 5
 160 75 l 1029
EndSplineSet
EndChar
StartChar: K
Encoding: 75 75 43
Width: 560
Flags: MW
AnchorPoint: "blwmark" 320 0 basechar 0
AnchorPoint: "abvmark" 360 700 basechar 0
LayerCount: 4
Fore
SplineSet
40 550 m 1
 40 550 67 600 99 600 c 3
 128 600 142 575 160 575 c 3
 182 575 200 600 201 600 c 1025
300 280 m 1
 420 400 l 1
 420 560 l 1
 460 600 l 9
 500 560 l 1049
360 325 m 1
 440 225 l 1
 440 50 l 1
 490 0 l 9
 540 50 l 1049
300 600 m 1
 260 560 l 1
 260 40 l 1
 220 0 l 1
 220 0 198 50 120 50 c 3
 65 50 40 0 40 0 c 1033
EndSplineSet
Layer: 2
SplineSet
160 550 m 5
 160 75 l 1029
EndSplineSet
EndChar
StartChar: M
Encoding: 77 77 45
Width: 720
Flags: MW
AnchorPoint: "blwmark" 360 0 basechar 0
AnchorPoint: "abvmark" 400 700 basechar 0
LayerCount: 4
Fore
SplineSet
680 50 m 29
 630 0 l 21
 580 50 l 5
 580 500 l 1
 480 600 l 1
 400 520 l 1025
40 550 m 1
 40 550 67 600 99 600 c 3
 128 600 142 575 160 575 c 3
 182 575 200 600 201 600 c 1025
500 50 m 25
 450 0 l 17
 400 50 l 1
 400 500 l 1
 300 600 l 1
 260 560 l 1
 260 40 l 1
 220 0 l 1
 220 0 198 50 120 50 c 3
 65 50 40 0 40 0 c 1033
EndSplineSet
Layer: 2
SplineSet
160 550 m 5
 160 75 l 1029
EndSplineSet
EndChar
StartChar: N
Encoding: 78 78 46
Width: 600
Flags: MW
AnchorPoint: "blwmark" 320 0 basechar 0
AnchorPoint: "abvmark" 320 700 basechar 0
LayerCount: 4
Fore
SplineSet
40 550 m 1
 40 550 67 600 99 600 c 3
 128 600 142 575 160 575 c 3
 182 575 200 600 201 600 c 1025
40 0 m 17
 40 0 65 50 120 50 c 3
 198 50 220 0 220 0 c 1
 260 40 l 1
 260 560 l 1
 300 600 l 1
 440 500 l 1
 440 50 l 5
 490 0 l 13
 540 50 l 1053
EndSplineSet
Layer: 2
SplineSet
160 550 m 5
 160 75 l 1029
EndSplineSet
EndChar
StartChar: P
Encoding: 80 80 48
Width: 560
Flags: MW
AnchorPoint: "blwmark" 320 0 basechar 0
AnchorPoint: "abvmark" 320 700 basechar 0
LayerCount: 4
Fore
SplineSet
200 250 m 17
 200 250 243 300 280 300 c 27
 331 300 400 250 400 250 c 1
 480 330 l 1
 480 475 l 1
 300 600 l 1
 260 560 l 1
 260 40 l 1
 220 0 l 1
 220 0 198 50 120 50 c 3
 65 50 40 0 40 0 c 1033
40 550 m 1
 40 550 67 600 99 600 c 3
 128 600 142 575 160 575 c 3
 182 575 200 600 201 600 c 1025
EndSplineSet
Layer: 2
SplineSet
160 550 m 5
 160 75 l 1029
EndSplineSet
EndChar
StartChar: T
Encoding: 84 84 52
Width: 560
Flags: MW
AnchorPoint: "blwmark" 280 0 basechar 0
AnchorPoint: "abvmark" 320 700 basechar 0
LayerCount: 4
Fore
SplineSet
320 450 m 1
 320 100 l 1049
200 450 m 1
 200 450 100 356 100 250 c 3
 100 84 171 0 280 0 c 3
 375 0 481 150 482 150 c 1049
80 500 m 17
 80 500 144 600 200 600 c 27
 264 600 278 500 342 500 c 19
 404 500 460 600 461 600 c 1033
EndSplineSet
Layer: 2
SplineSet
220 450 m 5
 220 100 l 1053
EndSplineSet
EndChar
StartChar: V
Encoding: 86 86 54
Width: 560
Flags: MW
AnchorPoint: "blwmark" 300 0 basechar 0
AnchorPoint: "abvmark" 360 700 basechar 0
LayerCount: 4
Fore
SplineSet
40 550 m 1
 40 550 67 600 99 600 c 3
 128 600 142 575 160 575 c 3
 182 575 200 600 201 600 c 1025
260 250 m 1
 260 560 l 1
 300 600 l 1025
80 100 m 17
 80 100 110 150 140 150 c 3
 299 150 300 0 300 0 c 1
 460 160.799804688 l 1
 460 452 l 1
 460 452 400 455.200195312 400 500 c 3
 400 544 480 600 480 600 c 1025
EndSplineSet
Layer: 2
SplineSet
160 550 m 5
 160 175 l 1029
EndSplineSet
EndChar
StartChar: W
Encoding: 87 87 55
Width: 800
Flags: MW
AnchorPoint: "blwmark" 440 0 basechar 0
AnchorPoint: "abvmark" 460 700 basechar 0
LayerCount: 4
Fore
SplineSet
435 600 m 25
 485 550 l 1049
40 550 m 1
 40 550 67 600 99 600 c 3
 128 600 142 575 160 575 c 3
 182 575 200 600 201 600 c 1025
260 250 m 1
 260 560 l 1
 300 600 l 1025
80 100 m 17
 80 100 110 150 140 150 c 3
 299 150 300 0 300 0 c 1
 460 160.799804688 l 1
 460 575 l 1025
720 600 m 1
 720 600 640 544 640 500 c 3
 640 455.200195312 700 452 700 452 c 1
 700 160.799804688 l 1
 540 0 l 1
 460 160.799804688 l 1049
EndSplineSet
Layer: 2
SplineSet
160 550 m 5
 160 175 l 1029
EndSplineSet
EndChar
StartChar: backslash
Encoding: 92 92 60
Width: 400
Flags: MW
LayerCount: 4
Fore
SplineSet
360 -150 m 29
 40 700 l 1049
EndSplineSet
EndChar
StartChar: asciicircum
Encoding: 94 94 62
Width: 480
Flags: MW
LayerCount: 4
Fore
SplineSet
80 300 m 25
 240 600 l 25
 400 300 l 1053
EndSplineSet
EndChar
StartChar: underscore
Encoding: 95 95 63
Width: 560
Flags: MW
LayerCount: 4
Fore
SplineSet
80 -150 m 25
 480 -150 l 1053
EndSplineSet
EndChar
StartChar: grave
Encoding: 96 96 64
Width: 320
Flags: MW
LayerCount: 4
Fore
SplineSet
100 700 m 17
 100 600 220 550 220 550 c 1049
EndSplineSet
EndChar
StartChar: a
Encoding: 97 97 65
Width: 320
Flags: MW
AnchorPoint: "blwmark" 160 0 basechar 0
AnchorPoint: "abvmark" 180 500 basechar 0
LayerCount: 4
Fore
SplineSet
100 280 m 17
 80 340 l 1
 140 400 l 1
 240 375 l 1
 240 20 l 1
 260 0 l 1
 300 40 l 1049
240 100 m 25
 140 0 l 1
 80 60 l 1
 80 190 l 1
 140 250 l 1
 140 250 155 225 200 225 c 3
 215 225 240 225 240 225 c 1033
EndSplineSet
Substitution2: "Stylistic alternates-1" ascript
EndChar
StartChar: d
Encoding: 100 100 68
Width: 320
Flags: MW
AnchorPoint: "blwmark" 160 0 basechar 0
AnchorPoint: "abvmark" 200 700 basechar 0
LayerCount: 4
Fore
SplineSet
240 320 m 1
 160 400 l 25
 80 320 l 1
 80 80 l 29
 160 0 l 25
 240 80 l 5
 240 450 l 10
 240 500 195 550 160 550 c 0
 125 550 80 563 80 600 c 27
 80 623 100 630 113 650 c 1049
EndSplineSet
EndChar
StartChar: j
Encoding: 106 106 74
Width: 160
Flags: MW
LayerCount: 4
Fore
SplineSet
75 640 m 25
 125 590 l 25
 75 540 l 1049
105 350 m 25
 55 400 l 25
 5 350 l 1049
80 375 m 1
 80 -100 l 9
 30 -150 l 1049
EndSplineSet
Substitution2: "Dotless forms-1" dotlessj
EndChar
StartChar: m
Encoding: 109 109 77
Width: 480
Flags: MW
AnchorPoint: "blwmark" 240 0 basechar 0
AnchorPoint: "abvmark" 240 500 basechar 0
LayerCount: 4
Fore
SplineSet
375 50 m 25
 425 0 l 1049
400 25 m 1
 400 340 l 25
 340 400 l 1
 240 300 l 1049
215 50 m 25
 265 0 l 1049
240 25 m 1
 240 340 l 25
 180 400 l 1
 80 300 l 1049
55 50 m 25
 105 0 l 1049
105 350 m 25
 55 400 l 1049
80 375 m 9
 80 25 l 1025
EndSplineSet
Substitution2: "Stylistic alternates-1" m.alt
EndChar
StartChar: n
Encoding: 110 110 78
Width: 320
Flags: MW
AnchorPoint: "blwmark" 160 0 basechar 0
AnchorPoint: "abvmark" 160 500 basechar 0
LayerCount: 4
Fore
SplineSet
215 50 m 25
 265 0 l 1049
240 25 m 1
 240 340 l 25
 180 400 l 1
 80 300 l 1049
55 50 m 25
 105 0 l 1049
105 350 m 25
 55 400 l 1049
80 375 m 9
 80 25 l 1025
EndSplineSet
Substitution2: "Stylistic alternates-1" n.alt
EndChar
StartChar: w
Encoding: 119 119 87
Width: 480
Flags: MW
AnchorPoint: "blwmark" 240 0 basechar 0
LayerCount: 4
Fore
SplineSet
265 350 m 29
 215 400 l 1053
240 375 m 29
 240 80 l 1
 320 0 l 25
 400 80 l 1
 400 380 l 17
 400 380 360 423 360 472 c 8
 360 507 404 550 404 550 c 1033
105 350 m 25
 55 400 l 1049
80 375 m 25
 80 80 l 1
 160 0 l 25
 240 80 l 1025
EndSplineSet
Substitution2: "Dotless forms-1" w.alt
EndChar
StartChar: x
Encoding: 120 120 88
Width: 320
Flags: MW
AnchorPoint: "blwmark" 160 0 basechar 0
AnchorPoint: "abvmark" 160 500 basechar 0
LayerCount: 4
Fore
SplineSet
60 175 m 25
 60 175 98 225 120 225 c 24
 155 225 165 175 200 175 c 24
 222 175 260 225 261 225 c 1049
160 320 m 9
 240 400 l 25
 280 360 l 1049
160 80 m 13
 240 0 l 1
 280 40 l 1053
40 360 m 25
 80 400 l 25
 160 320 l 25
 160 80 l 29
 80 0 l 29
 40 40 l 1053
EndSplineSet
EndChar
StartChar: y
Encoding: 121 121 89
Width: 320
Flags: MW
AnchorPoint: "abvmark" 160 500 basechar 0
LayerCount: 4
Fore
SplineSet
105 350 m 25
 55 400 l 1049
265 350 m 29
 215 400 l 1053
40 -200 m 17
 40 -200 70 -150 100 -150 c 8
 137 -150 143 -200 180 -200 c 24
 210 -200 240 -150 240 -150 c 1
 240 375 l 1029
240 80 m 9
 160 0 l 25
 80 80 l 1
 80 375 l 1049
EndSplineSet
EndChar
StartChar: braceleft
Encoding: 123 123 91
Width: 240
Flags: MW
LayerCount: 4
Fore
SplineSet
200 700 m 25
 120 620 l 1
 120 330 l 25
 40 250 l 25
 120 200 l 25
 120 -100 l 1
 200 -150 l 1049
EndSplineSet
EndChar
StartChar: bar
Encoding: 124 124 92
Width: 200
Flags: MW
LayerCount: 4
Fore
SplineSet
100 -150 m 25
 100 700 l 1053
EndSplineSet
EndChar
StartChar: braceright
Encoding: 125 125 93
Width: 240
Flags: MW
LayerCount: 4
Fore
SplineSet
40 700 m 25
 120 650 l 1
 120 350 l 25
 200 300 l 25
 120 220 l 25
 120 -70 l 1
 40 -150 l 1049
EndSplineSet
EndChar
StartChar: asciitilde
Encoding: 126 126 94
Width: 560
Flags: MW
LayerCount: 4
Fore
SplineSet
80 275 m 17
 80 275 125 325 160 325 c 27
 254 325 306 300 400 300 c 27
 435 300 480 350 480 350 c 1033
EndSplineSet
EndChar
StartChar: cent
Encoding: 162 162 202
Width: 360
Flags: MW
LayerCount: 4
Fore
SplineSet
200 600 m 25
 200 -150 l 1049
320 320 m 9
 200 400 l 25
 80 280 l 25
 80 100 l 25
 200 0 l 25
 320 100 l 1041
EndSplineSet
EndChar
StartChar: sterling
Encoding: 163 163 203
Width: 440
Flags: MW
LayerCount: 4
Fore
SplineSet
321 600 m 1
 320 600 302 575 280 575 c 3
 262 575 248 600 219 600 c 3
 187 600 160 550 160 550 c 1
 160 100 l 1025
400 80.7998046875 m 1
 320 0 l 17
 320 0 279 50 120 50 c 3
 65 50 40 0 40 0 c 1033
80 275 m 17
 80 275 112 325 140 325 c 27
 187 325 213 300 260 300 c 27
 288 300 320 350 320 350 c 1033
EndSplineSet
EndChar
StartChar: section
Encoding: 167 167 206
Width: 400
Flags: MW
LayerCount: 4
Fore
SplineSet
160 400 m 25
 80 320 l 25
 80 140 l 25
 320 50 l 25
 320 -120 l 25
 240 -200 l 17
 240 -200 176 -160 130 -160 c 27
 92 -160 40 -200 40 -200 c 1033
360 700 m 17
 360 700 315 660 280 660 c 27
 231 660 160 700 160 700 c 9
 80 620 l 25
 80 450 l 25
 320 360 l 25
 320 180 l 25
 240 100 l 1049
EndSplineSet
EndChar
StartChar: copyright
Encoding: 169 169 221
Width: 560
Flags: MW
LayerCount: 4
Fore
SplineSet
303 410 m 1
 303 190 l 1025
248 465 m 1
 248 465 171 399 171 300 c 3
 171 208 214 135 293 135 c 3
 345 135 402 218 403 218 c 1025
248 406 m 1
 248 406 290 465 316 465 c 3
 344 465 332 438 358 438 c 3
 379 438 390 465 391 465 c 1025
40 350 m 0
 40 475 140 600 240 600 c 0
 440 600 520 500 520 250 c 0
 520 125 420 0 320 0 c 0
 120 0 40 100 40 350 c 0
EndSplineSet
Layer: 2
SplineSet
248 438 m 5
 248 190 l 1029
EndSplineSet
Colour: ff00
EndChar
StartChar: ordfeminine
Encoding: 170 170 210
Width: 320
Flags: MW
LayerCount: 4
Fore
SplineSet
40 200 m 25
 280 200 l 1049
100 580 m 17
 80 640 l 1
 140 700 l 1
 240 675 l 1
 240 320 l 1
 260 300 l 1
 300 340 l 1049
240 400 m 25
 140 300 l 1
 80 360 l 1
 80 490 l 1
 140 550 l 1
 140 550 155 525 200 525 c 3
 215 525 240 525 240 525 c 1033
EndSplineSet
EndChar
StartChar: guillemotleft
Encoding: 171 171 215
Width: 440
Flags: MW
LayerCount: 4
Fore
SplineSet
380 325 m 21
 380 325 363 295 340 275 c 4
 264 207 240 200 240 200 c 5
 240 200 291 174 360 100 c 4
 377 82 400 50 400 50 c 1037
180 325 m 17
 180 325 163 295 140 275 c 0
 64 207 40 200 40 200 c 1
 40 200 91 174 160 100 c 0
 177 82 200 50 200 50 c 1033
EndSplineSet
EndChar
StartChar: registered
Encoding: 174 174 222
Width: 560
Flags: MW
LayerCount: 4
Fore
SplineSet
154 438 m 1
 154 438 169 465 187 465 c 3
 203 465 211 451 221 451 c 3
 233 451 242 465 243 465 c 1025
330 314 m 1
 397 396 l 1
 298 465 l 1
 276 438 l 1
 276 162 l 1
 254 135 l 1
 254 135 241 162 198 162 c 3
 168 162 154 135 154 135 c 1033
353 341 m 1
 374 314 l 1
 374 162 l 1
 397 135 l 9
 418 162 l 1049
40 350 m 0
 40 475 140 600 240 600 c 0
 440 600 520 500 520 250 c 0
 520 125 420 0 320 0 c 0
 120 0 40 100 40 350 c 0
EndSplineSet
Layer: 2
SplineSet
221 438 m 5
 221 176 l 1029
EndSplineSet
Colour: ff00
EndChar
StartChar: degree
Encoding: 176 176 229
Width: 400
Flags: MW
LayerCount: 4
Fore
SplineSet
80 600 m 0
 80 660 132 725 180 725 c 0
 260 725 320 650 320 550 c 4
 320 490 268 425 220 425 c 0
 140 425 80 500 80 600 c 0
EndSplineSet
EndChar
StartChar: micro
Encoding: 181 181 209
Width: 320
Flags: MW
LayerCount: 4
Fore
SplineSet
80 375 m 1
 80 -150 l 1025
105 350 m 9
 55 400 l 1041
300 40 m 9
 260 0 l 1
 240 20 l 17
 240 375 l 1025
265 350 m 9
 215 400 l 1041
40 0 m 1
 40 0 48 25 100 25 c 3
 149 25 160 0 160 0 c 9
 240 80 l 1025
EndSplineSet
EndChar
StartChar: paragraph
Encoding: 182 182 226
Width: 480
Flags: MW
LayerCount: 4
Fore
SplineSet
240 150 m 17
 240 150 232 100 180 100 c 3
 112 100 80 178 80 350 c 3
 80 469 113 600 219 600 c 3
 248 600 262 575 280 575 c 3
 302 575 320 600 321 600 c 1025
420 600 m 1
 380 560 l 1
 380 -75 l 1025
440 -200 m 1
 440 -200 338 -150 260 -150 c 3
 205 -150 180 -200 180 -200 c 1025
EndSplineSet
Layer: 2
SplineSet
280 550 m 5
 280 -125 l 1029
EndSplineSet
EndChar
StartChar: ordmasculine
Encoding: 186 186 211
Width: 320
Flags: MW
LayerCount: 4
Fore
SplineSet
160 700 m 25
 80 620 l 25
 80 380 l 25
 160 300 l 25
 240 380 l 25
 240 620 l 25
 160 700 l 25
40 200 m 25
 280 200 l 1049
EndSplineSet
EndChar
StartChar: Eth
Encoding: 208 208 180
Width: 560
Flags: MW
AnchorPoint: "blwmark" 280 0 basechar 0
AnchorPoint: "abvmark" 320 700 basechar 0
LayerCount: 4
Fore
SplineSet
40 550 m 1
 40 550 67 600 99 600 c 3
 128 600 142 575 160 575 c 3
 182 575 200 600 201 600 c 1025
260 150 m 1
 260 550 l 1
 300 600 l 1
 480 475 l 1
 480 101 l 1
 400 0 l 17
 400 0 279 50 120 50 c 3
 65 50 40 0 40 0 c 1033
80 275 m 17
 80 275 112 325 140 325 c 27
 203 325 237 300 300 300 c 27
 328 300 360 350 360 350 c 1033
EndSplineSet
Layer: 2
SplineSet
160 550 m 5
 160 75 l 1029
EndSplineSet
EndChar
StartChar: Oslash
Encoding: 216 216 182
Width: 640
Flags: MW
AnchorPoint: "abvmark" 360 700 basechar 0
LayerCount: 4
Fore
SplineSet
560 600 m 25
 80 0 l 1049
342 550 m 1
 340 100 l 1025
240 600 m 1
 240 600 100 480 100 300 c 3
 100 134 176 0 320 0 c 3
 415 0 522 142 522 300 c 3
 522 512 449 600 360 600 c 3
 290 600 240 492 240 492 c 1025
EndSplineSet
Layer: 2
SplineSet
240 550 m 5
 240 100 l 1029
EndSplineSet
EndChar
StartChar: Thorn
Encoding: 222 222 178
Width: 560
Flags: MW
AnchorPoint: "abvmark" 320 700 basechar 0
LayerCount: 4
Fore
SplineSet
200 50 m 17
 200 50 243 100 280 100 c 27
 331 100 400 50 400 50 c 1
 480 130 l 1
 480 275 l 1
 300 400 l 1
 260 360 l 1025
40 550 m 1
 40 550 67 600 99 600 c 3
 128 600 142 575 160 575 c 3
 182 575 200 600 201 600 c 1025
300 600 m 1
 260 560 l 1
 260 -100 l 1
 160 -200 l 1
 160 -200 138 -150 60 -150 c 3
 5 -150 -20 -200 -18 -200 c 1033
EndSplineSet
Layer: 2
SplineSet
160 550 m 5
 160 -125 l 1029
EndSplineSet
EndChar
StartChar: divide
Encoding: 247 247 224
Width: 480
Flags: MW
LayerCount: 4
Fore
SplineSet
220 115 m 25
 260 75 l 1049
80 300 m 25
 400 300 l 1049
220 525 m 25
 260 485 l 1049
EndSplineSet
EndChar
StartChar: oslash
Encoding: 248 248 183
Width: 320
Flags: MW
AnchorPoint: "blwmark" 160 0 basechar 0
AnchorPoint: "abvmark" 160 500 basechar 0
LayerCount: 4
Fore
SplineSet
280 400 m 25
 40 0 l 1049
160 400 m 25
 80 320 l 25
 80 80 l 25
 160 0 l 25
 240 80 l 25
 240 320 l 25
 160 400 l 25
EndSplineSet
EndChar
StartChar: lslash
Encoding: 322 322 291
Width: 160
Flags: MW
LayerCount: 4
Fore
SplineSet
140 370 m 25
 20 250 l 1049
55 50 m 25
 105 0 l 25
 155 50 l 1049
55 625 m 25
 105 575 l 1049
80 600 m 9
 80 25 l 1049
EndSplineSet
EndChar
StartChar: eng
Encoding: 331 331 600
Width: 320
Flags: MW
AnchorPoint: "abvmark" 160 500 basechar 0
LayerCount: 4
Fore
SplineSet
80 306 m 25
 180 406 l 1
 240 346 l 1
 240 -150 l 1
 240 -150 202 -200 180 -200 c 0
 154 -200 137 -150 100 -150 c 16
 70 -150 40 -200 40 -200 c 1033
55 50 m 25
 105 0 l 1049
105 356 m 25
 55 406 l 1049
80 381 m 9
 80 25 l 1025
EndSplineSet
EndChar
StartChar: longs
Encoding: 383 383 95
Width: 240
Flags: MW
AnchorPoint: "abvmark" 140 700 basechar 0
LayerCount: 4
Fore
SplineSet
-100 -200 m 17
 -100 -200 -70 -150 -40 -150 c 8
 -3 -150 3 -200 40 -200 c 24
 70 -200 100 -150 100 -150 c 1
 100 570 l 1
 180 650 l 17
 180 650 212 610 240 610 c 24
 268 610 300 650 301 650 c 1033
EndSplineSet
EndChar
StartChar: HV
Encoding: 502 502 513
Width: 720
Flags: MW
AnchorPoint: "blwmark" 380 0 basechar 0
AnchorPoint: "abvmark" 400 700 basechar 0
LayerCount: 4
Fore
SplineSet
40 550 m 1
 40 550 67 600 99 600 c 3
 128 600 142 575 160 575 c 3
 182 575 200 600 201 600 c 1025
300 275 m 1
 400 375 l 1
 440 335 l 1
 440 40 l 1
 500 0 l 1
 620 120.799804688 l 1
 620 452 l 1
 620 452 560 455.200195312 560 500 c 3
 560 544 640 600 640 600 c 1025
300 600 m 1
 260 560 l 1
 260 40 l 1
 220 0 l 1
 220 0 198 50 120 50 c 3
 65 50 40 0 40 0 c 1033
EndSplineSet
Layer: 2
SplineSet
160 550 m 5
 160 75 l 1029
EndSplineSet
EndChar
StartChar: Wynn
Encoding: 503 503 970
Width: 560
Flags: W
AnchorPoint: "abvmark" 320 700 basechar 0
LayerCount: 4
Fore
SplineSet
200 0 m 1
 480 280 l 1
 480 475 l 1
 300 600 l 1
 260 560 l 1
 260 -160 l 1
 220 -200 l 1
 220 -200 198 -150 120 -150 c 3
 65 -150 40 -200 40 -200 c 1033
40 550 m 1
 40 550 67 600 99 600 c 3
 128 600 142 575 160 575 c 3
 182 575 200 600 201 600 c 1025
EndSplineSet
Layer: 2
SplineSet
200 550 m 1
 200 -125 l 1029
EndSplineSet
EndChar
StartChar: dotlessj
Encoding: 567 567 98
Width: 160
Flags: MW
AnchorPoint: "abvmark" 80 500 basechar 0
LayerCount: 4
Fore
SplineSet
105 350 m 25
 55 400 l 25
 5 350 l 1049
80 375 m 1
 80 -100 l 9
 30 -150 l 1049
EndSplineSet
EndChar
StartChar: ascript
Encoding: 593 593 348
Width: 320
Flags: MW
AnchorPoint: "blwmark" 160 0 basechar 0
AnchorPoint: "abvmark" 180 500 basechar 0
LayerCount: 4
Fore
SplineSet
300 40 m 25
 260 0 l 1
 240 20 l 1
 240 400 l 1
 240 400 222 368 200 368 c 0
 178 368 160 400 160 400 c 9
 80 320 l 1
 80 60 l 17
 140 0 l 1
 240 100 l 1049
EndSplineSet
EndChar
StartChar: Rsmallcap
Encoding: 640 640 854
Width: 360
Flags: MW
AnchorPoint: "blwmark" 180 0 basechar 0
AnchorPoint: "abvmark" 160 500 basechar 0
LayerCount: 4
Fore
SplineSet
55 50 m 25
 105 0 l 1049
55 400 m 25
 105 350 l 1049
80 375 m 9
 80 25 l 1025
320 40 m 25
 280 0 l 1
 280 0 263 79 240 125 c 24
 223 159 180 200 180 200 c 1025
160 180 m 1
 280 300 l 1
 160 400 l 1
 80 320 l 1049
EndSplineSet
EndChar
StartChar: verticallinemod
Encoding: 712 712 887
Width: 320
Flags: MW
LayerCount: 4
Fore
SplineSet
160 700 m 9
 160 525 l 1025
EndSplineSet
EndChar
StartChar: dotaccent
Encoding: 729 729 269
Width: 320
Flags: MW
LayerCount: 4
Fore
SplineSet
135 590 m 25
 185 540 l 1049
EndSplineSet
EndChar
StartChar: ring
Encoding: 730 730 184
Width: 320
Flags: MW
LayerCount: 4
Fore
SplineSet
80 650 m 4
 80 710 92 725 140 725 c 4
 200 725 240 675 240 600 c 4
 240 540 228 525 180 525 c 4
 120 525 80 575 80 650 c 4
EndSplineSet
EndChar
StartChar: tilde
Encoding: 732 732 168
Width: 320
Flags: MW
LayerCount: 4
Fore
SplineSet
40 525 m 17
 40 525 72 575 100 575 c 27
 147 575 173 550 220 550 c 27
 248 550 280 600 280 600 c 1033
EndSplineSet
EndChar
StartChar: hungarumlaut
Encoding: 733 733 267
Width: 320
Flags: MW
LayerCount: 4
Fore
SplineSet
280 700 m 17
 280 600 180 525 180 525 c 1049
160 700 m 17
 160 600 60 525 60 525 c 1049
EndSplineSet
EndChar
StartChar: hookcmb
Encoding: 777 777 381
Width: 0
Flags: MW
AnchorPoint: "abvmark" -160 500 mark 0
LayerCount: 4
Fore
SplineSet
-160 500 m 1
 -80 580 l 1
 -80 675 l 1
 -180 700 l 25
 -240 640 l 1
 -220 600 l 1049
EndSplineSet
EndChar
StartChar: breveinvertedbelowcmb
Encoding: 815 815 537
Width: 0
VWidth: 400
Flags: MW
AnchorPoint: "blwmark" -160 0 mark 0
LayerCount: 4
Fore
SplineSet
-60 -200 m 21
 -60 -200 -72 -125 -160 -125 c 7
 -196 -125 -240 -200 -240 -200 c 1037
EndSplineSet
EndChar
StartChar: tridotright
Encoding: 4347 4347 895
Width: 400
Flags: MW
LayerCount: 4
Fore
SplineSet
290 200 m 25
 340 150 l 1049
95 350 m 25
 145 300 l 1049
95 50 m 25
 145 0 l 1049
EndSplineSet
EndChar
StartChar: emdash
Encoding: 8212 8212 258
Width: 480
Flags: MW
LayerCount: 4
Fore
SplineSet
40 200 m 25
 440 200 l 1049
EndSplineSet
EndChar
StartChar: horizontalbar
Encoding: 8213 8213 909
Width: 560
Flags: MW
LayerCount: 4
Fore
SplineSet
40 200 m 25
 520 200 l 1049
EndSplineSet
EndChar
StartChar: quoteright
Encoding: 8217 8217 255
Width: 240
Flags: MW
LayerCount: 4
Fore
SplineSet
90 600 m 25
 140 550 l 1
 140 500 l 25
 65 425 l 1049
EndSplineSet
EndChar
StartChar: quotedblright
Encoding: 8221 8221 252
Width: 400
Flags: MW
LayerCount: 4
Fore
SplineSet
250 600 m 25
 300 550 l 1
 300 500 l 25
 225 425 l 1049
90 600 m 25
 140 550 l 1
 140 500 l 25
 65 425 l 1049
EndSplineSet
EndChar
StartChar: quotedblrev
Encoding: 8223 8223 929
Width: 400
Flags: MW
LayerCount: 4
Layer: 3
SplineSet
150 600 m 25
 100 550 l 1
 100 500 l 25
 175 425 l 1049
310 600 m 25
 260 550 l 1
 260 500 l 25
 335 425 l 1049
EndSplineSet
EndChar
StartChar: daggerdbl
Encoding: 8225 8225 263
Width: 320
Flags: MW
LayerCount: 4
Fore
SplineSet
40 45 m 25
 90 -5 l 25
 230 55 l 25
 280 5 l 1049
40 405 m 25
 90 355 l 25
 230 415 l 25
 280 365 l 1049
140 560 m 1
 140 560 151 524 152 500 c 24
 158 383 160 200 160 200 c 1
 160 200 162 383 168 500 c 24
 170 539 180 600 180 600 c 9
 140 560 l 1
180 -160 m 1
 180 -160 169 -124 168 -100 c 24
 162 17 160 200 160 200 c 1
 160 200 158 17 152 -100 c 24
 150 -139 140 -200 140 -200 c 9
 180 -160 l 1
EndSplineSet
EndChar
StartChar: bullet
Encoding: 8226 8226 259
Width: 240
Flags: MW
LayerCount: 4
Fore
SplineSet
95 355 m 25
 165 285 l 25
 145 265 l 25
 75 335 l 25
 95 355 l 25
EndSplineSet
EndChar
StartChar: perthousand
Encoding: 8240 8240 244
Width: 840
Flags: MW
LayerCount: 4
Fore
SplineSet
680 200 m 25
 600 120 l 25
 600 -70 l 25
 680 -150 l 25
 760 -70 l 25
 760 120 l 25
 680 200 l 25
400 200 m 25
 320 120 l 25
 320 -70 l 25
 400 -150 l 25
 480 -70 l 25
 480 120 l 25
 400 200 l 25
40 -150 m 25
 520 700 l 1049
160 700 m 25
 80 620 l 25
 80 430 l 25
 160 350 l 25
 240 430 l 25
 240 620 l 25
 160 700 l 25
EndSplineSet
EndChar
StartChar: minute
Encoding: 8242 8242 926
Width: 240
Flags: MW
LayerCount: 4
Fore
SplineSet
160 700 m 17
 160 600 80 525 80 525 c 1041
EndSplineSet
EndChar
StartChar: guilsinglleft
Encoding: 8249 8249 242
Width: 240
Flags: MW
LayerCount: 4
Fore
SplineSet
180 325 m 21
 180 325 163 295 140 275 c 4
 64 207 40 200 40 200 c 5
 40 200 91 174 160 100 c 4
 177 82 200 50 200 50 c 1037
EndSplineSet
EndChar
StartChar: et
Encoding: 8266 8266 960
Width: 320
Flags: MW
LayerCount: 4
Fore
SplineSet
60 400 m 1
 60 400 110 350 180 350 c 3
 223 350 280 400 280 400 c 1
 280 400 120 176 120 -100 c 7
 120 -132 120 -150 120 -150 c 1025
EndSplineSet
EndChar
StartChar: paragraphrev
Encoding: 8267 8267 951
Width: 560
Flags: MW
LayerCount: 4
Fore
SplineSet
40 550 m 1
 40 550 65 600 99 600 c 3
 128 600 142 575 160 575 c 3
 182 575 200 600 201 600 c 1025
320 -200 m 1
 320 -200 218 -150 140 -150 c 3
 85 -150 60 -200 60 -200 c 1025
301 150 m 17
 301 150 309 100 361 100 c 3
 429 100 461 178 461 350 c 3
 461 469 456 600 402 600 c 3
 373 600 359 575 341 575 c 3
 319 575 301 600 300 600 c 1
 260 560 l 1
 260 -75 l 1025
EndSplineSet
Layer: 2
SplineSet
160 550 m 5
 160 -125 l 1029
EndSplineSet
EndChar
StartChar: lozengedot
Encoding: 8280 8280 899
Width: 480
Flags: MW
LayerCount: 4
Fore
SplineSet
330 200 m 25
 380 150 l 1049
205 50 m 25
 255 0 l 1049
215 350 m 25
 265 300 l 1049
100 200 m 25
 150 150 l 1049
EndSplineSet
EndChar
StartChar: dotcross
Encoding: 8284 8284 954
Width: 480
Flags: MW
LayerCount: 4
Fore
SplineSet
240 550 m 25
 240 50 l 1049
40 300 m 25
 440 300 l 1049
340 485 m 25
 390 435 l 1049
340 165 m 25
 390 115 l 1049
90 485 m 25
 140 435 l 1049
90 165 m 25
 140 115 l 1049
EndSplineSet
EndChar
StartChar: therefore
Encoding: 8756 8756 896
Width: 480
Flags: MW
LayerCount: 4
Fore
SplineSet
335 50 m 25
 385 0 l 1049
215 350 m 25
 265 300 l 1049
95 50 m 25
 145 0 l 1049
EndSplineSet
EndChar
StartChar: because
Encoding: 8757 8757 897
Width: 480
Flags: MW
LayerCount: 4
Fore
SplineSet
335 350 m 25
 385 300 l 1049
95 350 m 25
 145 300 l 1049
215 50 m 29
 265 0 l 1053
EndSplineSet
EndChar
StartChar: ruslst
Encoding: 11789 11789 903
Width: 240
Flags: MW
LayerCount: 4
Fore
SplineSet
40 450 m 25
 200 700 l 1049
EndSplineSet
EndChar
StartChar: barquillright
Encoding: 11809 11809 921
Width: 240
Flags: MW
LayerCount: 4
Fore
SplineSet
40 300 m 25
 160 300 l 1049
160 700 m 25
 160 -150 l 1049
EndSplineSet
EndChar
StartChar: brackettopleft
Encoding: 11810 11810 922
Width: 240
Flags: MW
LayerCount: 4
Fore
SplineSet
200 700 m 25
 80 700 l 17
 80 300 l 1025
EndSplineSet
EndChar
StartChar: brackettopright
Encoding: 11811 11811 923
Width: 240
Flags: MW
LayerCount: 4
Fore
SplineSet
40 700 m 25
 160 700 l 17
 160 300 l 1025
EndSplineSet
EndChar
StartChar: Ubracketleft
Encoding: 11814 11814 912
Width: 400
Flags: MW
LayerCount: 4
Fore
SplineSet
360 400 m 1
 240 400 l 26
 152 400 80 310 80 200 c 27
 80 90 152 0 240 0 c 26
 360 0 l 1025
EndSplineSet
EndChar
StartChar: fivedots
Encoding: 11821 11821 935
Width: 480
Flags: MW
LayerCount: 4
Fore
SplineSet
215 200 m 25
 265 150 l 1049
350 200 m 25
 400 150 l 1049
215 25 m 25
 265 -25 l 1049
215 375 m 25
 265 325 l 1049
80 200 m 25
 130 150 l 1049
EndSplineSet
EndChar
StartChar: a_o
Encoding: 42805 42805 341
Width: 480
Flags: MW
AnchorPoint: "blwmark" 240 0 basechar 0
AnchorPoint: "abvmark" 240 500 basechar 0
LayerCount: 4
Fore
SplineSet
100 280 m 17
 80 340 l 1
 140 400 l 1
 240 375 l 1
 240 100 l 9
 140 0 l 1
 80 60 l 1
 80 190 l 1
 140 250 l 1
 140 250 155 225 200 225 c 3
 215 225 240 225 240 225 c 1033
320 400 m 25
 240 320 l 25
 240 80 l 25
 320 0 l 25
 400 80 l 25
 400 320 l 25
 320 400 l 25
EndSplineSet
LCarets2: 1 240 
Ligature2: "Historic ligatures-1" a o
EndChar
StartChar: avslash
Encoding: 42811 42811 861
Width: 480
Flags: MW
AnchorPoint: "abvmark" 240 500 basechar 0
AnchorPoint: "blwmark" 240 0 basechar 0
LayerCount: 4
Fore
SplineSet
240 250 m 25
 440 250 l 1049
240 100 m 9
 140 0 l 1
 80 60 l 1
 80 190 l 1
 140 250 l 1
 140 250 155 225 200 225 c 3
 215 225 240 225 240 225 c 1033
404 550 m 17
 404 550 360 507 360 472 c 16
 360 423 400 380 400 380 c 9
 400 80 l 1
 320 0 l 25
 240 80 l 1
 240 375 l 17
 140 400 l 1
 80 340 l 1
 100 280 l 1033
EndSplineSet
EndChar
StartChar: o_o
Encoding: 42831 42831 669
Width: 480
Flags: MW
AnchorPoint: "blwmark" 240 0 basechar 0
AnchorPoint: "abvmark" 240 500 basechar 0
LayerCount: 4
Fore
SplineSet
320 400 m 25
 240 320 l 25
 240 80 l 29
 320 0 l 25
 400 80 l 29
 400 320 l 25
 320 400 l 25
160 400 m 25
 80 320 l 25
 80 80 l 29
 160 0 l 29
 240 80 l 29
 240 320 l 25
 160 400 l 25
EndSplineSet
LCarets2: 1 240 
Ligature2: "Historic ligatures-1" o o
EndChar
StartChar: pflourish
Encoding: 42835 42835 869
Width: 400
Flags: MW
AnchorPoint: "abvmark" 240 500 basechar 0
LayerCount: 4
Fore
SplineSet
160 320 m 25
 240 400 l 1
 320 320 l 25
 320 80 l 1
 240 0 l 1
 240 0 186 100 20 100 c 1
 20 100 60 44 60 0 c 3
 60 -132 20 -150 20 -150 c 1033
135 400 m 25
 185 350 l 1049
160 375 m 1
 160 -150 l 1025
EndSplineSet
EndChar
StartChar: qbar
Encoding: 42839 42839 871
Width: 320
Flags: MW
AnchorPoint: "abvmark" 180 500 basechar 0
LayerCount: 4
Fore
SplineSet
300 -75 m 25
 160 -75 l 1049
240 80 m 9
 160 0 l 25
 80 80 l 25
 80 320 l 25
 160 400 l 1
 160 400 180 368 200 368 c 24
 220 368 240 400 240 400 c 9
 240 -150 l 1049
EndSplineSet
EndChar
StartChar: rrotunda
Encoding: 42843 42843 96
Width: 240
Flags: MW
AnchorPoint: "blwmark" 120 0 basechar 0
AnchorPoint: "abvmark" 120 500 basechar 0
LayerCount: 4
Fore
SplineSet
200 40 m 25
 160 0 l 1
 80 220 l 25
 160 300 l 1
 80 400 l 1
 40 360 l 1049
EndSplineSet
EndChar
StartChar: rumrotunda
Encoding: 42845 42845 705
Width: 400
Flags: MW
LayerCount: 4
Fore
SplineSet
240 225 m 1
 280 200 l 1
 280 200 280 139 280 100 c 27
 280 3 160 -150 160 -150 c 1025
360 50 m 17
 360 50 345 0 300 0 c 3
 225 0 200 40 200 40 c 13
 160 0 l 5
 80 220 l 25
 160 300 l 1
 80 400 l 1
 40 360 l 1049
EndSplineSet
EndChar
StartChar: y_y
Encoding: 42849 42849 834
Width: 480
Flags: MW
AnchorPoint: "abvmark" 240 500 basechar 0
LayerCount: 4
Fore
SplineSet
265 350 m 25
 215 400 l 1049
425 350 m 29
 375 400 l 1053
40 -200 m 17
 40 -200 70 -150 100 -150 c 8
 196 -150 244 -200 340 -200 c 24
 370 -200 400 -150 400 -150 c 1
 400 375 l 1029
400 80 m 9
 320 0 l 25
 240 80 l 1
 240 375 l 1049
105 350 m 25
 55 400 l 1049
240 80 m 9
 160 0 l 25
 80 80 l 1
 80 375 l 1049
EndSplineSet
LCarets2: 1 240 
Ligature2: "Historic ligatures-1" y y
EndChar
StartChar: zvisigoth
Encoding: 42851 42851 839
Width: 280
Flags: MW
AnchorPoint: "abvmark" 160 500 basechar 0
LayerCount: 4
Fore
SplineSet
240 320 m 9
 160 400 l 25
 80 320 l 1
 80 200 l 25
 160 150 l 29
 80 70 l 5
 200 0 l 1
 200 -150 l 1
 200 -150 162 -200 140 -200 c 0
 114 -200 97 -150 60 -150 c 16
 30 -150 0 -200 0 -200 c 1025
EndSplineSet
EndChar
StartChar: thornbar
Encoding: 42853 42853 874
Width: 320
Flags: MW
AnchorPoint: "abvmark" 160 700 basechar 0
LayerCount: 4
Fore
SplineSet
40 0 m 1
 40 0 77 40 100 40 c 0
 123 40 160 0 160 0 c 9
 240 80 l 1
 240 320 l 25
 160 400 l 1
 80 320 l 1049
55 625 m 25
 105 575 l 1049
80 600 m 1
 80 -150 l 1025
160 475 m 25
 20 475 l 1049
EndSplineSet
EndChar
StartChar: lum
Encoding: 42866 42866 573
Width: 340
Flags: MW
LayerCount: 4
Fore
SplineSet
180 225 m 1
 220 200 l 1
 220 200 220 139 220 100 c 27
 220 3 100 -150 100 -150 c 1025
300 50 m 17
 300 50 285 0 240 0 c 3
 165 0 155 50 155 50 c 9
 105 0 l 25
 55 50 l 1025
55 625 m 25
 105 575 l 1049
80 600 m 9
 80 25 l 1049
EndSplineSet
EndChar
StartChar: mum
Encoding: 42867 42867 587
Width: 660
Flags: MW
LayerCount: 4
Fore
SplineSet
400 25 m 1
 400 340 l 25
 340 400 l 1
 240 300 l 1041
215 50 m 9
 265 0 l 1041
240 25 m 1
 240 340 l 25
 180 400 l 1
 80 300 l 1041
55 50 m 9
 105 0 l 1041
105 350 m 9
 55 400 l 1041
80 375 m 9
 80 25 l 1025
500 225 m 1
 540 200 l 1
 540 200 540 139 540 100 c 27
 540 3 420 -150 420 -150 c 1025
620 50 m 17
 620 50 605 0 560 0 c 3
 485 0 475 50 475 50 c 9
 425 0 l 25
 375 50 l 1025
EndSplineSet
EndChar
StartChar: num
Encoding: 42868 42868 597
Width: 500
Flags: MW
LayerCount: 4
Fore
SplineSet
340 225 m 1
 380 200 l 1
 380 200 380 139 380 100 c 27
 380 3 260 -150 260 -150 c 1025
460 50 m 17
 460 50 445 0 400 0 c 3
 325 0 315 50 315 50 c 1
 265 0 l 25
 215 50 l 1025
240 25 m 1
 240 340 l 25
 180 400 l 1
 80 300 l 1049
55 50 m 25
 105 0 l 1049
105 350 m 25
 55 400 l 1049
80 375 m 9
 80 25 l 1025
EndSplineSet
EndChar
StartChar: rum
Encoding: 42869 42869 704
Width: 360
Flags: MW
LayerCount: 4
Fore
SplineSet
200 525 m 1
 240 500 l 1
 240 500 240 406 240 250 c 3
 240 -37 120 -150 120 -150 c 1025
320 400 m 17
 320 400 305 350 260 350 c 3
 185 350 160 400 160 400 c 9
 80 320 l 1025
55 50 m 25
 105 0 l 1049
55 400 m 25
 105 350 l 1049
80 375 m 9
 80 25 l 1025
EndSplineSet
EndChar
StartChar: tum
Encoding: 42871 42871 728
Width: 480
Flags: MW
LayerCount: 4
Fore
SplineSet
40 400 m 1049,0,-1
100 550 m 1,2,-1
 100 40 l 1,3,-1
 140 0 l 1,4,-1
 220 80 l 1025
320 525 m 1,0,-1
 360 500 l 1,1,2
 360 500 360 406 360 250 c 3,3,4
 360 -37 240 -150 240 -150 c 1025
440 400 m 1,6,7
 440 400 414 350 280 350 c 3,8,9
 138 350 40 400 40 400 c 1025,10,-1
EndSplineSet
EndChar
StartChar: um
Encoding: 42872 42872 958
Width: 320
Flags: MW
LayerCount: 4
Fore
SplineSet
80 -150 m 25
 80 -92 80 -58 80 0 c 3
 80 141 280 400 280 400 c 1
 280 400 242 360 220 360 c 0
 185 360 160 400 160 400 c 9
 80 320 l 1
 80 240 l 1
 240 160 l 1
 240 80 l 1
 160 0 l 17
 160 0 128 40 100 40 c 24
 72 40 40 0 40 0 c 1025
EndSplineSet
EndChar
StartChar: hbar_longs
Encoding: 59335 59335 963
Width: 340
Flags: MW
LayerCount: 4
Fore
SplineSet
235 50 m 25
 285 0 l 1049
260 25 m 25
 260 340 l 25
 200 400 l 1
 100 300 l 1049
-100 -200 m 17
 -100 -200 -70 -150 -40 -150 c 8
 -3 -150 3 -200 40 -200 c 24
 70 -200 100 -150 100 -150 c 1
 100 570 l 1
 180 650 l 17
 180 650 212 610 240 610 c 24
 268 610 300 650 301 650 c 1033
160 475 m 25
 20 475 l 1049
EndSplineSet
LCarets2: 1 180 
Ligature2: "Historic ligatures-1" hbar longs
EndChar
StartChar: q_rrotunda
Encoding: 59571 59571 965
Width: 480
Flags: MW
LayerCount: 4
Fore
SplineSet
240 80 m 9
 160 0 l 25
 80 80 l 25
 80 320 l 25
 160 400 l 1
 160 400 180 368 200 368 c 24
 220 368 240 400 240 400 c 9
 240 -150 l 1049
440 40 m 25
 400 0 l 1
 320 220 l 25
 400 300 l 1
 320 400 l 1
 280 360 l 1049
EndSplineSet
LCarets2: 1 280 
Ligature2: "Ligatures-1" q rrotunda
EndChar
StartChar: q_v
Encoding: 60113 60113 967
Width: 480
Flags: MW
LayerCount: 4
Fore
SplineSet
240 80 m 9
 160 0 l 25
 80 80 l 25
 80 320 l 25
 160 400 l 1
 160 400 180 368 200 368 c 24
 220 368 240 400 240 400 c 9
 240 -150 l 1049
240 80 m 1
 320 0 l 25
 400 80 l 1
 400 380 l 17
 400 380 360 423 360 472 c 8
 360 507 404 550 404 550 c 1033
EndSplineSet
LCarets2: 1 240 
Ligature2: "Ligatures-1" q v
EndChar
StartChar: longs_p
Encoding: 60325 60325 709
Width: 520
Flags: MW
LayerCount: 4
Fore
SplineSet
200 0 m 1
 200 0 237 40 260 40 c 11
 302 40 360 0 360 0 c 9
 440 80 l 1
 440 320 l 25
 360 400 l 1
 280 320 l 1049
280 380 m 1
 280 -150 l 1025
-100 -200 m 17
 -100 -200 -70 -150 -40 -150 c 8
 -3 -150 3 -200 40 -200 c 24
 70 -200 100 -150 100 -150 c 1
 100 570 l 1
 180 650 l 17
 180 650 216 610 320 610 c 3
 348 610 381 650 381 650 c 9
 240 420 l 9
 305 355 l 1025
EndSplineSet
LCarets2: 1 240 
Ligature2: "Ligatures-1" longs p
EndChar
StartChar: longs_longs_i
Encoding: 60327 60327 331
Width: 520
GlyphClass: 3
Flags: MW
LayerCount: 4
Fore
SplineSet
100 -150 m 1
 125 -150 174 -200 200 -200 c 0
 222 -200 260 -150 260 -150 c 1
 260 570 l 1
 340 650 l 17
 340 650 400 600 480 600 c 1
 430 550 l 1025
-100 -200 m 1
 -100 -200 -70 -150 -40 -150 c 8
 -3 -150 3 -200 40 -200 c 24
 70 -200 100 -150 100 -150 c 1
 100 570 l 1
 180 650 l 1
 180 650 225 570 260 570 c 1025
415 400 m 25
 465 350 l 1025
440 375 m 9
 440 25 l 1025
415 50 m 25
 465 0 l 25
 515 50 l 1049
EndSplineSet
LCarets2: 2 240 400 
Ligature2: "Ligatures-1" longs longs i
EndChar
StartChar: longs_longs_l
Encoding: 60328 60328 332
Width: 520
GlyphClass: 3
Flags: MW
LayerCount: 4
Fore
SplineSet
100 -150 m 1
 125 -150 174 -200 200 -200 c 0
 222 -200 260 -150 260 -150 c 1
 260 570 l 1
 340 650 l 17
 340 650 355 625 415 625 c 1
 465 575 l 1025
-100 -200 m 17
 -100 -200 -70 -150 -40 -150 c 8
 -3 -150 3 -200 40 -200 c 24
 70 -200 100 -150 100 -150 c 1
 100 570 l 1
 180 650 l 1
 180 650 225 570 260 570 c 1025
415 50 m 25
 465 0 l 25
 515 50 l 1049
440 600 m 9
 440 25 l 1049
EndSplineSet
LCarets2: 2 240 400 
Ligature2: "Ligatures-1" longs longs l
EndChar
StartChar: longs_t_r
Encoding: 60330 60330 713
Width: 560
Flags: MW
LayerCount: 4
Fore
SplineSet
520 360 m 25
 480 400 l 25
 400 320 l 1049
375 50 m 25
 425 0 l 1049
400 375 m 9
 400 25 l 1025
-100 -200 m 1
 -100 -200 -70 -150 -40 -150 c 8
 -3 -150 3 -200 40 -200 c 24
 70 -200 100 -150 100 -150 c 1
 100 570 l 1
 180 650 l 1
 180 650 225 550 260 550 c 1
 260 40 l 1
 300 0 l 1
 380 80 l 1025
200 400 m 1
 375 400 l 25
 425 350 l 1025
EndSplineSet
LCarets2: 2 240 400 
Ligature2: "Ligatures-1" longs t r
EndChar
StartChar: b_b
Encoding: 61122 61122 349
Width: 480
GlyphClass: 3
Flags: MW
LayerCount: 4
Fore
SplineSet
215 625 m 25
 265 575 l 1049
240 600 m 9
 240 80 l 25
 320 0 l 25
 400 80 l 25
 400 320 l 25
 320 400 l 1
 240 320 l 1049
55 625 m 25
 105 575 l 1049
80 600 m 9
 80 80 l 25
 160 0 l 25
 240 80 l 25
 240 320 l 25
 160 400 l 1
 80 320 l 1049
EndSplineSet
LCarets2: 1 240 
Ligature2: "Historic ligatures-1" b b
EndChar
StartChar: c_k
Encoding: 61124 61124 439
Width: 520
Flags: MW
LayerCount: 4
Fore
SplineSet
240 320 m 9
 160 400 l 25
 80 320 l 25
 80 80 l 25
 160 0 l 25
 240 80 l 1041
415 425 m 25
 465 375 l 1049
255 625 m 25
 305 575 l 1049
255 625 m 25
 305 575 l 1049
280 200 m 1
 440 350 l 9
 440 400 l 1049
360 275 m 1
 440 200 l 1
 440 25 l 1029
415 50 m 29
 465 0 l 1053
255 50 m 25
 305 0 l 1049
255 625 m 25
 305 575 l 1049
280 600 m 9
 280 25 l 1049
EndSplineSet
LCarets2: 1 280 
Ligature2: "Ligatures-1" c k
EndChar
StartChar: c_t
Encoding: 61125 61125 335
Width: 540
Flags: MW
LayerCount: 4
Fore
SplineSet
240 80 m 9
 160 0 l 25
 80 80 l 25
 80 300 l 1
 160 400 l 17
 160 400 217 350 320 350 c 3
 442 350 480 400 480 400 c 1033
380 550 m 1
 380 40 l 1
 420 0 l 1
 500 80 l 1025
EndSplineSet
LCarets2: 1 280 
Ligature2: "Ligatures-1" c t
EndChar
StartChar: f_r
Encoding: 61130 61130 352
Width: 440
GlyphClass: 3
Flags: MW
LayerCount: 4
Fore
SplineSet
-100 -200 m 1
 -100 -200 -70 -150 -40 -150 c 8
 -3 -150 3 -200 40 -200 c 24
 70 -200 100 -150 100 -150 c 1
 100 570 l 1
 180 650 l 17
 180 650 212 610 240 610 c 24
 268 610 300 650 301 650 c 1025
40 400 m 1
 255 400 l 25
 305 350 l 1025
400 360 m 25
 360 400 l 25
 280 320 l 1049
255 50 m 25
 305 0 l 1049
280 375 m 9
 280 25 l 1025
EndSplineSet
LCarets2: 1 240 
Ligature2: "Ligatures-1" f r
EndChar
StartChar: f_t
Encoding: 61131 61131 326
Width: 420
GlyphClass: 3
Flags: MW
LayerCount: 4
Fore
SplineSet
-100 -200 m 17
 -100 -200 -70 -150 -40 -150 c 8
 -3 -150 3 -200 40 -200 c 24
 70 -200 100 -150 100 -150 c 1
 100 570 l 1
 180 650 l 1
 180 650 225 550 260 550 c 1
 260 40 l 1
 300 0 l 1
 380 80 l 1025
40 400 m 25
 360 400 l 1049
EndSplineSet
LCarets2: 1 240 
Ligature2: "Ligatures-1" f t
EndChar
StartChar: pfluorish_p
Encoding: 61143 61143 879
Width: 560
Flags: MW
LayerCount: 4
Fore
SplineSet
320 -150 m 1
 320 320 l 9
 400 400 l 1
 480 320 l 25
 480 80 l 1
 400 0 l 1
 400 0 373 40 300 40 c 0
 277 40 240 0 240 0 c 1
 240 0 186 100 20 100 c 1
 20 100 60 44 60 0 c 3
 60 -132 20 -150 20 -150 c 1033
320 320 m 25
 240 400 l 1
 160 320 l 1049
135 400 m 25
 185 350 l 1049
160 375 m 1
 160 -150 l 1025
EndSplineSet
LCarets2: 1 320 
Ligature2: "Ligatures-1" pflourish p
EndChar
StartChar: t_r
Encoding: 61144 61144 729
Width: 400
Flags: MW
LayerCount: 4
Fore
SplineSet
360 360 m 25
 320 400 l 25
 240 320 l 1049
215 50 m 25
 265 0 l 1049
240 375 m 9
 240 25 l 1025
100 550 m 1
 100 40 l 1
 140 0 l 1
 220 80 l 1025
40 400 m 1
 215 400 l 25
 265 350 l 1025
EndSplineSet
LCarets2: 1 240 
Ligature2: "Ligatures-1" t r
EndChar
StartChar: t_t
Encoding: 61145 61145 730
Width: 420
Flags: MW
LayerCount: 4
Fore
SplineSet
260 550 m 1
 260 40 l 1
 300 0 l 1
 380 80 l 1025
40 400 m 1
 360 400 l 1041
100 550 m 1
 100 40 l 1
 140 0 l 1
 220 80 l 1025
EndSplineSet
LCarets2: 1 240 
Ligature2: "Ligatures-1" t t
EndChar
StartChar: t_y
Encoding: 61147 61147 731
Width: 520
Flags: MW
LayerCount: 4
Fore
SplineSet
465 350 m 25
 415 400 l 1049
240 -200 m 17
 240 -200 270 -150 300 -150 c 8
 337 -150 343 -200 380 -200 c 24
 410 -200 440 -150 440 -150 c 1
 440 375 l 1025
440 80 m 9
 360 0 l 25
 280 80 l 1
 280 375 l 1049
100 550 m 1
 100 40 l 1
 140 0 l 1
 220 80 l 1025
40 400 m 1
 255 400 l 1
 305 350 l 1025
EndSplineSet
LCarets2: 1 240 
Ligature2: "Ligatures-1" t y
EndChar
StartChar: a_p
Encoding: 61353 61353 342
Width: 480
GlyphClass: 3
Flags: MW
LayerCount: 4
Fore
SplineSet
100 280 m 17
 80 340 l 1
 140 400 l 1
 240 375 l 1
 240 100 l 9
 140 0 l 1
 80 60 l 1
 80 190 l 5
 140 250 l 5
 140 250 155 225 200 225 c 3
 215 225 240 225 240 225 c 1033
200 0 m 1
 200 0 237 40 260 40 c 0
 283 40 320 0 320 0 c 9
 400 80 l 1
 400 320 l 25
 320 400 l 1
 240 320 l 1049
240 -150 m 1
 240 375 l 1025
EndSplineSet
LCarets2: 1 240 
Ligature2: "Historic ligatures-1" a p
EndChar
StartChar: a_Rsmallcap
Encoding: 61355 61355 857
Width: 520
Flags: MW
LayerCount: 4
Fore
SplineSet
480 40 m 25
 440 0 l 1
 440 0 423 79 400 125 c 24
 383 159 340 200 340 200 c 1025
320 180 m 1
 440 300 l 1
 320 400 l 1
 240 320 l 1049
100 280 m 17
 80 340 l 1
 140 400 l 1
 240 375 l 1
 240 20 l 1
 260 0 l 1
 300 40 l 1049
240 100 m 25
 140 0 l 1
 80 60 l 1
 80 190 l 1
 140 250 l 1
 140 250 155 225 200 225 c 3
 215 225 240 225 240 225 c 1033
EndSplineSet
LCarets2: 1 240 
Ligature2: "Historic ligatures-1" a Rsmallcap
EndChar
StartChar: c_h
Encoding: 61883 61883 853
Width: 520
Flags: MW
LayerCount: 4
Fore
SplineSet
240 320 m 9
 160 400 l 25
 80 320 l 25
 80 80 l 25
 160 0 l 25
 240 80 l 1041
415 50 m 25
 465 0 l 1049
255 50 m 25
 305 0 l 1049
255 625 m 25
 305 575 l 1049
280 600 m 9
 280 25 l 1049
440 25 m 25
 440 340 l 25
 380 400 l 1
 280 300 l 1049
EndSplineSet
LCarets2: 1 240 
Ligature2: "Ligatures-1" c h
EndChar
StartChar: l_l
Encoding: 62713 62713 575
Width: 320
Flags: MW
LayerCount: 4
Fore
SplineSet
215 50 m 25
 265 0 l 25
 315 50 l 1049
215 625 m 25
 265 575 l 1049
240 600 m 9
 240 25 l 1049
55 50 m 25
 105 0 l 25
 155 50 l 1049
55 625 m 25
 105 575 l 1049
80 600 m 9
 80 25 l 1049
EndSplineSet
LCarets2: 1 160 
Ligature2: "Ligatures-1" l l
EndChar
StartChar: longs_s
Encoding: 62717 62717 710
Width: 480
Flags: MW
LayerCount: 4
Fore
SplineSet
-100 -200 m 17
 -100 -200 -70 -150 -40 -150 c 8
 -3 -150 3 -200 40 -200 c 24
 70 -200 100 -150 100 -150 c 1
 100 570 l 1
 180 650 l 17
 180 650 212 610 240 610 c 24
 268 610 300 650 301 650 c 1033
440 400 m 17
 440 400 408 360 380 360 c 24
 352 360 320 400 320 400 c 9
 240 320 l 1
 240 240 l 1
 400 160 l 1
 400 80 l 1
 320 0 l 17
 320 0 288 40 260 40 c 24
 232 40 200 0 200 0 c 1025
EndSplineSet
LCarets2: 1 240 
Ligature2: "Ligatures-1" longs s
EndChar
StartChar: longs_longs_t
Encoding: 62719 62719 712
Width: 580
Flags: MW
LayerCount: 4
Fore
SplineSet
540 80 m 1
 460 0 l 1
 420 40 l 1
 420 550 l 1
 385 550 340 650 340 650 c 1
 260 570 l 1
 260 -150 l 1
 260 -150 222 -200 200 -200 c 0
 174 -200 125 -150 100 -150 c 1025
360 400 m 25
 520 400 l 1049
-100 -200 m 17
 -100 -200 -70 -150 -40 -150 c 8
 -3 -150 3 -200 40 -200 c 24
 70 -200 100 -150 100 -150 c 1
 100 570 l 1
 180 650 l 1
 180 650 225 570 260 570 c 1025
EndSplineSet
LCarets2: 2 240 400 
Ligature2: "Ligatures-1" longs longs t
EndChar
StartChar: f_f
Encoding: 64256 64256 320
Width: 400
Flags: MW
LayerCount: 4
Fore
SplineSet
100 -150 m 1
 125 -150 174 -200 200 -200 c 0
 222 -200 260 -150 260 -150 c 1
 260 570 l 1
 340 650 l 17
 340 650 372 610 400 610 c 24
 428 610 460 650 461 650 c 1033
-100 -200 m 17
 -100 -200 -70 -150 -40 -150 c 8
 -3 -150 3 -200 40 -200 c 24
 70 -200 100 -150 100 -150 c 1
 100 570 l 1
 180 650 l 1
 180 650 225 570 260 570 c 1025
40 400 m 25
 360 400 l 1049
EndSplineSet
LCarets2: 1 240 
Ligature2: "Ligatures-1" f f
EndChar
StartChar: f_l
Encoding: 64258 64258 323
Width: 360
Flags: MW
LayerCount: 4
Fore
SplineSet
-100 -200 m 17
 -100 -200 -70 -150 -40 -150 c 8
 -3 -150 3 -200 40 -200 c 24
 70 -200 100 -150 100 -150 c 1
 100 570 l 1
 180 650 l 1
 180 650 195 625 255 625 c 9
 305 575 l 1025
40 400 m 25
 240 400 l 1049
255 50 m 25
 305 0 l 25
 355 50 l 1049
280 600 m 9
 280 25 l 1049
EndSplineSet
LCarets2: 1 240 
Ligature2: "Ligatures-1" f l
EndChar
StartChar: s_t
Encoding: 64262 64262 334
Width: 560
Flags: MW
LayerCount: 4
Fore
SplineSet
40 0 m 1
 40 0 72 40 100 40 c 24
 128 40 160 0 160 0 c 9
 240 80 l 1
 240 160 l 1
 80 240 l 1
 80 320 l 1
 160 400 l 17
 160 400 220 350 360 350 c 3
 473 350 500 400 500 400 c 1033
400 550 m 1
 400 50 l 1
 440 0 l 1
 520 100 l 1025
EndSplineSet
LCarets2: 1 320 
Ligature2: "Ligatures-1" s t
EndChar
